<svg width="15" height="15" viewBox="0 0 15 15" fill="none" xmlns="http://www.w3.org/2000/svg">
<path d="M7.46525 9.88089C9.80469 9.88089 11.8023 10.3909 11.8023 12.4316C11.8023 14.4715 9.81751 15 7.46525 15C5.1258 15 3.12824 14.49 3.12824 12.4502C3.12824 10.4094 5.11298 9.88089 7.46525 9.88089ZM11.2057 8.65207C12.1001 8.62928 13.0617 8.79814 13.417 8.91803C14.1697 9.12151 14.6648 9.53692 14.87 10.1406C15.0433 10.6362 15.0433 11.2112 14.87 11.706C14.5562 12.6423 13.5446 12.9429 13.1514 13.0206C13.0702 13.0375 13.0049 12.9404 13.0134 12.8281C13.2143 10.2335 11.6166 9.00331 11.2033 8.72046C11.1856 8.7078 11.1819 8.68838 11.1838 8.67656C11.185 8.66811 11.1923 8.65461 11.2057 8.65207ZM3.62631 8.65032L3.79473 8.65241C3.80816 8.65494 3.81487 8.66845 3.81609 8.67605C3.81793 8.68872 3.81426 8.70729 3.79717 8.7208C3.38325 9.00365 1.78557 10.2338 1.98642 12.8276C1.99497 12.9407 1.93025 13.037 1.84906 13.0209C1.45589 12.9432 0.444293 12.6427 0.130495 11.7063C-0.0434983 11.2107 -0.0434983 10.6366 0.130495 10.1409C0.335623 9.53726 0.83013 9.12185 1.58288 8.91753C1.9388 8.79848 2.89973 8.62961 3.79473 8.65241L3.62631 8.65032ZM7.46525 0C9.05805 0 10.3352 1.76463 10.3352 3.9683C10.3352 6.17113 9.05805 7.93744 7.46525 7.93744C5.87245 7.93744 4.59528 6.17113 4.59528 3.9683C4.59528 1.76463 5.87245 0 7.46525 0ZM11.3614 0.661777C12.8999 0.661777 14.1081 2.66366 13.6966 4.8935C13.4188 6.3947 12.4133 7.39184 11.293 7.35132C11.1807 7.34709 11.0702 7.33274 10.9634 7.30741C10.8858 7.28884 10.8468 7.1681 10.8907 7.0786C11.3181 6.20895 11.5617 5.16284 11.5617 4.0399C11.5617 2.86798 11.2955 1.77543 10.8333 0.879611C10.8187 0.851749 10.8077 0.808689 10.8223 0.776605C10.8345 0.750431 10.8571 0.736922 10.8785 0.730167C11.0342 0.686262 11.1941 0.661777 11.3614 0.661777ZM3.63813 0.661693C3.80541 0.661693 3.96536 0.686178 4.12165 0.730083C4.14241 0.736837 4.16561 0.75119 4.17782 0.77652C4.19186 0.808604 4.18148 0.851664 4.16683 0.879527C3.70468 1.77535 3.4385 2.8679 3.4385 4.03981C3.4385 5.16276 3.68209 6.20887 4.10944 7.07852C4.1534 7.16801 4.11432 7.28875 4.03679 7.30733C3.92934 7.3335 3.81945 7.34701 3.70712 7.35123C2.58685 7.39176 1.58135 6.39462 1.30357 4.89342C0.891485 2.66357 2.09967 0.661693 3.63813 0.661693Z" fill="#BFA161"/>
</svg>
