<svg width="15" height="18" viewBox="0 0 15 18" fill="none" xmlns="http://www.w3.org/2000/svg">
<path d="M13.9286 9.64286C13.5386 9.62036 13.0746 8.97321 12.8571 7.5V6.42857C12.8571 4.18714 11.4782 2.26929 9.525 1.47C9.24107 0.618214 8.44714 0 7.5 0C6.55286 0 5.75893 0.618214 5.475 1.47C3.52179 2.26929 2.14286 4.18714 2.14286 6.42857V7.5C1.92536 8.97321 1.46143 9.62036 1.07143 9.64286C0.468214 9.67607 0 10.1121 0 10.7143C0 11.2168 0.267857 11.4514 0.6525 11.7857C1.70143 12.6964 4.00929 13.9286 7.5 13.9286C10.9907 13.9286 13.2986 12.6964 14.3475 11.7857C14.7321 11.4514 15 11.2168 15 10.7143C15 10.1121 14.5318 9.67607 13.9286 9.64286ZM4.93821 15.8646C5.52536 16.6393 6.45214 17.1429 7.5 17.1429C8.54786 17.1429 9.47464 16.6393 10.0618 15.8646C9.285 15.9932 8.43321 16.0714 7.5 16.0714C6.56679 16.0714 5.715 15.9932 4.93821 15.8646Z" fill="#175D85"/>
</svg>
