<svg width="15" height="15" viewBox="0 0 15 15" fill="none" xmlns="http://www.w3.org/2000/svg">
<path d="M4.43998 8.60223C5.49747 8.60223 6.34497 9.45798 6.34497 10.523V13.0797C6.34497 14.1372 5.49747 14.9997 4.43998 14.9997H1.90499C0.854996 14.9997 0 14.1372 0 13.0797V10.523C0 9.45798 0.854996 8.60223 1.90499 8.60223H4.43998ZM13.095 8.60223C14.145 8.60223 15 9.45798 15 10.523V13.0797C15 14.1372 14.145 14.9997 13.095 14.9997H10.56C9.50253 14.9997 8.65503 14.1372 8.65503 13.0797V10.523C8.65503 9.45798 9.50253 8.60223 10.56 8.60223H13.095ZM4.43998 0C5.49747 0 6.34497 0.862496 6.34497 1.92074V4.47748C6.34497 5.54247 5.49747 6.39747 4.43998 6.39747H1.90499C0.854996 6.39747 0 5.54247 0 4.47748V1.92074C0 0.862496 0.854996 0 1.90499 0H4.43998ZM13.095 0C14.145 0 15 0.862496 15 1.92074V4.47748C15 5.54247 14.145 6.39747 13.095 6.39747H10.56C9.50253 6.39747 8.65503 5.54247 8.65503 4.47748V1.92074C8.65503 0.862496 9.50253 0 10.56 0H13.095Z" fill="#175D85"/>
</svg>
