<svg width="50" height="50" viewBox="0 0 50 50" fill="none" xmlns="http://www.w3.org/2000/svg">
<circle cx="25" cy="25" r="25" fill="#175D85"/>
<path d="M31 15.5714C28.793 15.5714 27 17.1714 27 19.1429C27 20.4604 27.8086 21.5999 29 22.2199V22.7143C29 22.7143 29 26.2857 25 26.2857C23.3418 26.2857 22.042 26.6031 21 27.0896V18.6485C22.1924 18.0285 23 16.8889 23 15.5714C23 13.6 21.208 12 19 12C16.792 12 15 13.6 15 15.5714C15 16.8889 15.8076 18.0285 17 18.6485V30.3524C15.8076 30.9715 15 32.1102 15 33.4286C15 35.3991 16.792 37 19 37C21.208 37 23 35.3991 23 33.4286C23 32.4939 22.5879 31.6498 21.9297 31.0116C22.5117 30.3733 23.458 29.8571 25 29.8571C32.9375 29.8571 33 22.7143 33 22.7143V22.2199C34.1914 21.5999 35 20.4604 35 19.1429C35 17.1714 33.207 15.5714 31 15.5714ZM19 13.7857C20.1064 13.7857 21 14.5835 21 15.5714C21 16.5593 20.1064 17.3571 19 17.3571C17.8936 17.3571 17 16.5593 17 15.5714C17 14.5835 17.8936 13.7857 19 13.7857ZM19 35.2143C17.8936 35.2143 17 34.4156 17 33.4286C17 32.4433 17.8936 31.6429 19 31.6429C20.1064 31.6429 21 32.4433 21 33.4286C21 34.4156 20.1064 35.2143 19 35.2143ZM31 20.9286C29.8945 20.9286 29 20.1307 29 19.1429C29 18.155 29.8945 17.3571 31 17.3571C32.1055 17.3571 33 18.155 33 19.1429C33 20.1307 32.1055 20.9286 31 20.9286Z" fill="#BFA161"/>
</svg>
