<svg width="178" height="44" viewBox="0 0 178 44" fill="none" xmlns="http://www.w3.org/2000/svg">
<path fill-rule="evenodd" clip-rule="evenodd" d="M3.6315 10.324C5.63323 7.32817 8.34799 4.89108 11.5186 3.22373L15.2941 9.76297C13.1193 10.8482 11.2589 12.4837 9.90228 14.514C8.36326 16.8173 7.54181 19.5252 7.54181 22.2954C7.54181 25.0656 8.36326 27.7735 9.90228 30.0769C10.1871 30.5031 10.4941 30.9119 10.8215 31.3019L4.22485 35.1105C4.0207 34.8345 3.82284 34.5532 3.6315 34.2669C1.26377 30.7233 0 26.5572 0 22.2954C0 18.0336 1.26377 13.8675 3.6315 10.324ZM5.97314 37.1864C8.03188 39.3397 10.5246 41.0528 13.302 42.2032C17.2393 43.8341 21.5719 44.2608 25.7518 43.4294C29.9318 42.598 33.7712 40.5457 36.7848 37.5322L31.4519 32.1993C29.4931 34.1581 26.9974 35.4921 24.2805 36.0325C21.5636 36.5729 18.7474 36.2956 16.1881 35.2355C14.9667 34.7296 13.8301 34.0563 12.8081 33.2402L5.97314 37.1864ZM24.2805 8.55832C22.1304 8.13063 19.9181 8.21512 17.8202 8.7944L13.9691 2.1242C17.7256 0.712742 21.8067 0.376693 25.7518 1.16142C29.9317 1.99286 33.7712 4.04511 36.7848 7.05865L31.4519 12.3915C29.4931 10.4327 26.9974 9.09875 24.2805 8.55832Z" fill="#0C1C31"/>
<path d="M33.9166 14.7104L27.2368 18.5244V26.1524L33.9166 29.9664L40.5965 26.1524V18.5244L33.9166 14.7104Z" fill="#175D85"/>
<path d="M33.9166 22.3384V14.7104L27.2368 18.5244L33.9166 22.3384Z" fill="#338AAD"/>
<path d="M27.2368 18.5244V26.1524L33.9166 22.3384L27.2368 18.5244Z" fill="#143852"/>
<path d="M40.5965 18.5244L33.9166 22.3384L40.5965 26.1524V18.5244Z" fill="#338AAD"/>
<path d="M33.9166 22.3384L27.2368 26.1524L33.9166 29.9664V22.3384Z" fill="#143159"/>
<path d="M33.9166 29.9664L40.5965 26.1524L33.9166 22.3384V29.9664Z" fill="#143852"/>
<path d="M37.6864 24.4909V20.1859L33.9166 18.0334L30.1467 20.1859V24.4909L33.9166 26.6434L37.6864 24.4909Z" fill="#175D85"/>
<path d="M37.6864 24.4909V20.1859L33.9166 18.0334V26.6434L37.6864 24.4909Z" fill="#47B9EB"/>
<path fill-rule="evenodd" clip-rule="evenodd" d="M11.2998 15.4476C12.5085 13.6386 14.1718 12.1857 16.1166 11.231L17.0966 12.9285C15.4093 13.7303 13.9666 14.9748 12.9251 16.5336C11.7855 18.2391 11.1773 20.2441 11.1773 22.2953C11.1773 24.3464 11.7855 26.3515 12.9251 28.0569C13.2569 28.5535 13.6295 29.0183 14.0377 29.4469L12.304 30.4479C11.9419 30.0373 11.6062 29.6016 11.2998 29.1429C9.94541 27.116 9.22253 24.733 9.22253 22.2953C9.22253 19.8575 9.94541 17.4745 11.2998 15.4476ZM14.3897 32.329C15.1458 32.8684 15.9643 33.3234 16.8313 33.6825C19.0834 34.6154 21.5617 34.8595 23.9526 34.3839C26.3435 33.9083 28.5397 32.7344 30.2634 31.0107L28.8812 29.6285C27.4308 31.0788 25.583 32.0665 23.5712 32.4667C21.5595 32.8669 19.4743 32.6615 17.5793 31.8766C17.1327 31.6915 16.7013 31.4763 16.288 31.233L14.3897 32.329ZM23.5712 12.1238C22.2873 11.8684 20.9735 11.8597 19.6983 12.0908L18.6704 10.3104C20.3955 9.8962 22.1976 9.85753 23.9526 10.2066C26.3435 10.6822 28.5397 11.8561 30.2634 13.5798L28.8812 14.9621C27.4308 13.5117 25.583 12.524 23.5712 12.1238Z" fill="#0C1C31"/>
<path d="M59.0938 17.2227C59.0391 18.4102 58.7188 19.4609 58.1328 20.375C57.5469 21.2812 56.7227 21.9844 55.6602 22.4844C54.6055 22.9844 53.3984 23.2344 52.0391 23.2344C49.7969 23.2344 48.0312 22.5039 46.7422 21.043C45.4531 19.582 44.8086 17.5195 44.8086 14.8555V14.0117C44.8086 12.3398 45.0977 10.8789 45.6758 9.62891C46.2617 8.37109 47.1016 7.40234 48.1953 6.72266C49.2891 6.03516 50.5547 5.69141 51.9922 5.69141C54.0625 5.69141 55.7266 6.23828 56.9844 7.33203C58.2422 8.41797 58.957 9.91797 59.1289 11.832H55.0273C54.9961 10.793 54.7344 10.0469 54.2422 9.59375C53.75 9.14062 53 8.91406 51.9922 8.91406C50.9688 8.91406 50.2188 9.29688 49.7422 10.0625C49.2656 10.8281 49.0156 12.0508 48.9922 13.7305V14.9375C48.9922 16.7578 49.2188 18.0586 49.6719 18.8398C50.1328 19.6211 50.9219 20.0117 52.0391 20.0117C52.9844 20.0117 53.707 19.7891 54.207 19.3438C54.707 18.8984 54.9727 18.1914 55.0039 17.2227H59.0938ZM77.6483 14.8203C77.6483 16.4844 77.3397 17.957 76.7225 19.2383C76.1053 20.5195 75.2264 21.5078 74.0858 22.2031C72.953 22.8906 71.66 23.2344 70.2069 23.2344C68.7537 23.2344 67.4647 22.9023 66.3397 22.2383C65.2147 21.5664 64.3358 20.6094 63.703 19.3672C63.078 18.125 62.7498 16.6992 62.7186 15.0898V14.1289C62.7186 12.457 63.0233 10.9844 63.6327 9.71094C64.2498 8.42969 65.1287 7.44141 66.2694 6.74609C67.4178 6.05078 68.7225 5.70312 70.1834 5.70312C71.6287 5.70312 72.9178 6.04687 74.0506 6.73438C75.1834 7.42188 76.0623 8.40234 76.6873 9.67578C77.3202 10.9414 77.6405 12.3945 77.6483 14.0352V14.8203ZM73.4647 14.1055C73.4647 12.4102 73.1795 11.125 72.6092 10.25C72.0467 9.36719 71.2381 8.92578 70.1834 8.92578C68.1209 8.92578 67.0311 10.4727 66.9139 13.5664L66.9022 14.8203C66.9022 16.4922 67.1795 17.7773 67.7342 18.6758C68.2889 19.5742 69.1131 20.0234 70.2069 20.0234C71.2459 20.0234 72.0467 19.582 72.6092 18.6992C73.1717 17.8164 73.4569 16.5469 73.4647 14.8906V14.1055ZM88.2692 16.9766H86.0427V23H81.9294V5.9375H88.6442C90.6677 5.9375 92.2497 6.38672 93.3903 7.28516C94.5309 8.18359 95.1012 9.45312 95.1012 11.0938C95.1012 12.2812 94.8591 13.2656 94.3747 14.0469C93.8981 14.8281 93.1481 15.4609 92.1247 15.9453L95.6872 22.8242V23H91.2809L88.2692 16.9766ZM86.0427 13.8008H88.6442C89.4255 13.8008 90.0114 13.5977 90.402 13.1914C90.8005 12.7773 90.9997 12.2031 90.9997 11.4688C90.9997 10.7344 90.8005 10.1602 90.402 9.74609C90.0036 9.32422 89.4177 9.11328 88.6442 9.11328H86.0427V13.8008ZM110.328 15.7695H103.859V19.8359H111.5V23H99.7456V5.9375H111.523V9.11328H103.859V12.7109H110.328V15.7695ZM129.304 20.8906C128.671 21.5938 127.745 22.1602 126.527 22.5898C125.308 23.0195 123.972 23.2344 122.519 23.2344C120.285 23.2344 118.499 22.5508 117.163 21.1836C115.827 19.8164 115.113 17.9141 115.019 15.4766L115.007 14C115.007 12.3203 115.304 10.8555 115.898 9.60547C116.492 8.34766 117.339 7.38281 118.441 6.71094C119.55 6.03125 120.831 5.69141 122.285 5.69141C124.41 5.69141 126.058 6.17969 127.23 7.15625C128.41 8.125 129.097 9.57422 129.292 11.5039H125.331C125.191 10.5508 124.886 9.87109 124.417 9.46484C123.949 9.05859 123.285 8.85547 122.425 8.85547C121.394 8.85547 120.597 9.29297 120.035 10.168C119.472 11.043 119.187 12.293 119.179 13.918V14.9492C119.179 16.6523 119.468 17.9336 120.046 18.793C120.632 19.6445 121.55 20.0703 122.8 20.0703C123.87 20.0703 124.667 19.832 125.191 19.3555V16.707H122.331V13.8828H129.304V20.8906ZM144.437 15.7695H137.968V19.8359H145.609V23H133.855V5.9375H145.632V9.11328H137.968V12.7109H144.437V15.7695ZM154.847 5.9375L158.655 17.8086L162.452 5.9375H167.866V23H163.741V19.0156L164.14 10.8594L160.015 23H157.296L153.159 10.8477L153.558 19.0156V23H149.444V5.9375H154.847Z" fill="white"/>
<path d="M49.6602 37.8335C49.6396 38.2788 49.5195 38.6729 49.2998 39.0156C49.0801 39.3555 48.771 39.6191 48.3726 39.8066C47.9771 39.9941 47.5244 40.0879 47.0146 40.0879C46.1738 40.0879 45.5117 39.814 45.0283 39.2661C44.5449 38.7183 44.3032 37.9448 44.3032 36.9458V36.6294C44.3032 36.0024 44.4116 35.4546 44.6284 34.9858C44.8481 34.5142 45.1631 34.1509 45.5732 33.896C45.9834 33.6382 46.458 33.5093 46.9971 33.5093C47.7734 33.5093 48.3975 33.7144 48.8691 34.1245C49.3408 34.5317 49.6089 35.0942 49.6733 35.812H48.1353C48.1235 35.4224 48.0254 35.1426 47.8408 34.9727C47.6562 34.8027 47.375 34.7178 46.9971 34.7178C46.6133 34.7178 46.332 34.8613 46.1533 35.1484C45.9746 35.4355 45.8809 35.894 45.8721 36.5239V36.9766C45.8721 37.6592 45.957 38.147 46.127 38.4399C46.2998 38.7329 46.5957 38.8794 47.0146 38.8794C47.3691 38.8794 47.6401 38.7959 47.8276 38.6289C48.0151 38.4619 48.1147 38.1968 48.1265 37.8335H49.6602ZM55.8081 36.9326C55.8081 37.5566 55.6924 38.1089 55.4609 38.5894C55.2295 39.0698 54.8999 39.4404 54.4722 39.7012C54.0474 39.959 53.5625 40.0879 53.0176 40.0879C52.4727 40.0879 51.9893 39.9634 51.5674 39.7144C51.1455 39.4624 50.8159 39.1035 50.5786 38.6377C50.3442 38.1719 50.2212 37.6372 50.2095 37.0337V36.6733C50.2095 36.0464 50.3237 35.4941 50.5522 35.0166C50.7837 34.5361 51.1133 34.1655 51.541 33.9048C51.9717 33.644 52.4609 33.5137 53.0088 33.5137C53.5508 33.5137 54.0342 33.6426 54.459 33.9004C54.8838 34.1582 55.2134 34.5259 55.4478 35.0034C55.6851 35.478 55.8052 36.0229 55.8081 36.6382V36.9326ZM54.2393 36.6646C54.2393 36.0288 54.1323 35.5469 53.9185 35.2188C53.7075 34.8877 53.4043 34.7222 53.0088 34.7222C52.2354 34.7222 51.8267 35.3022 51.7827 36.4624L51.7783 36.9326C51.7783 37.5596 51.8823 38.0415 52.0903 38.3784C52.2983 38.7153 52.6074 38.8838 53.0176 38.8838C53.4072 38.8838 53.7075 38.7183 53.9185 38.3872C54.1294 38.0562 54.2363 37.5801 54.2393 36.959V36.6646ZM58.981 37.7412H58.146V40H56.6035V33.6016H59.1216C59.8804 33.6016 60.4736 33.77 60.9014 34.1069C61.3291 34.4438 61.543 34.9199 61.543 35.5352C61.543 35.9805 61.4521 36.3496 61.2705 36.6426C61.0918 36.9355 60.8105 37.1729 60.4268 37.3545L61.7627 39.9341V40H60.1104L58.981 37.7412ZM58.146 36.5503H59.1216C59.4146 36.5503 59.6343 36.4741 59.7808 36.3218C59.9302 36.1665 60.0049 35.9512 60.0049 35.6758C60.0049 35.4004 59.9302 35.1851 59.7808 35.0298C59.6313 34.8716 59.4116 34.7925 59.1216 34.7925H58.146V36.5503ZM66.4429 37.2886H64.0171V38.8135H66.8823V40H62.4746V33.6016H66.8911V34.7925H64.0171V36.1416H66.4429V37.2886ZM69.752 40V33.6016H72.0503C72.8735 33.6016 73.499 33.7524 73.9268 34.0542C74.3574 34.356 74.5728 34.7939 74.5728 35.3682C74.5728 35.6992 74.4966 35.9819 74.3442 36.2163C74.1919 36.4507 73.9678 36.6235 73.6719 36.7349C74.0059 36.8228 74.2622 36.9868 74.4409 37.2271C74.6196 37.4673 74.709 37.7603 74.709 38.106C74.709 38.7329 74.5098 39.2046 74.1113 39.521C73.7158 39.8345 73.1284 39.9941 72.3491 40H69.752ZM71.2944 37.2798V38.8135H72.3052C72.5835 38.8135 72.7974 38.7505 72.9468 38.6245C73.0962 38.4956 73.1709 38.3154 73.1709 38.084C73.1709 37.5508 72.9058 37.2827 72.3755 37.2798H71.2944ZM71.2944 36.269H72.0986C72.4355 36.2661 72.6758 36.2046 72.8193 36.0845C72.9629 35.9644 73.0347 35.7871 73.0347 35.5527C73.0347 35.2832 72.957 35.0898 72.8018 34.9727C72.6465 34.8525 72.396 34.7925 72.0503 34.7925H71.2944V36.269ZM79.1958 38.8047H77.082L76.7129 40H75.0649L77.4116 33.6016H78.8618L81.2261 40H79.5693L79.1958 38.8047ZM77.4512 37.6138H78.8267L78.1367 35.3945L77.4512 37.6138ZM87.04 40H85.5063L83.2388 36.0186V40H81.6963V33.6016H83.2388L85.502 37.583V33.6016H87.04V40ZM90.1909 37.6182L89.5581 38.3125V40H88.0156V33.6016H89.5581V36.4229L90.0942 35.6099L91.4741 33.6016H93.3813L91.2192 36.4316L93.3813 40H91.5532L90.1909 37.6182ZM95.416 40H93.8779V33.6016H95.416V40ZM101.832 40H100.298L98.0308 36.0186V40H96.4883V33.6016H98.0308L100.294 37.583V33.6016H101.832V40ZM108.046 39.209C107.809 39.4727 107.461 39.6851 107.004 39.8462C106.547 40.0073 106.046 40.0879 105.501 40.0879C104.664 40.0879 103.994 39.8315 103.493 39.3188C102.992 38.8062 102.724 38.0928 102.689 37.1787L102.685 36.625C102.685 35.9951 102.796 35.4458 103.019 34.9771C103.241 34.5054 103.559 34.1436 103.972 33.8916C104.388 33.6367 104.869 33.5093 105.414 33.5093C106.21 33.5093 106.829 33.6924 107.268 34.0586C107.71 34.4219 107.968 34.9653 108.042 35.689H106.556C106.503 35.3315 106.389 35.0767 106.213 34.9243C106.038 34.772 105.789 34.6958 105.466 34.6958C105.08 34.6958 104.781 34.8599 104.57 35.188C104.359 35.5161 104.252 35.9849 104.249 36.5942V36.981C104.249 37.6196 104.357 38.1001 104.574 38.4224C104.794 38.7417 105.138 38.9014 105.607 38.9014C106.008 38.9014 106.307 38.812 106.503 38.6333V37.6401H105.431V36.5811H108.046V39.209ZM114.818 38.8047H112.704L112.335 40H110.687L113.034 33.6016H114.484L116.848 40H115.191L114.818 38.8047ZM113.073 37.6138H114.449L113.759 35.3945L113.073 37.6138ZM118.861 37.8291V40H117.318V33.6016H119.872C120.361 33.6016 120.793 33.6924 121.168 33.874C121.546 34.0527 121.837 34.3091 122.042 34.6431C122.25 34.9741 122.354 35.3506 122.354 35.7725C122.354 36.3965 122.13 36.896 121.682 37.271C121.237 37.6431 120.625 37.8291 119.845 37.8291H118.861ZM118.861 36.6382H119.872C120.17 36.6382 120.397 36.5635 120.553 36.4141C120.711 36.2646 120.79 36.0537 120.79 35.7812C120.79 35.4824 120.709 35.2437 120.548 35.0649C120.387 34.8862 120.167 34.7954 119.889 34.7925H118.861V36.6382ZM124.723 37.8291V40H123.181V33.6016H125.734C126.223 33.6016 126.655 33.6924 127.03 33.874C127.408 34.0527 127.7 34.3091 127.905 34.6431C128.113 34.9741 128.217 35.3506 128.217 35.7725C128.217 36.3965 127.993 36.896 127.544 37.271C127.099 37.6431 126.487 37.8291 125.708 37.8291H124.723ZM124.723 36.6382H125.734C126.033 36.6382 126.26 36.5635 126.415 36.4141C126.573 36.2646 126.652 36.0537 126.652 35.7812C126.652 35.4824 126.572 35.2437 126.411 35.0649C126.25 34.8862 126.03 34.7954 125.751 34.7925H124.723V36.6382ZM130.585 38.8135H133.271V40H129.043V33.6016H130.585V38.8135ZM135.564 40H134.026V33.6016H135.564V40ZM141.813 37.8335C141.793 38.2788 141.673 38.6729 141.453 39.0156C141.233 39.3555 140.924 39.6191 140.526 39.8066C140.13 39.9941 139.678 40.0879 139.168 40.0879C138.327 40.0879 137.665 39.814 137.182 39.2661C136.698 38.7183 136.457 37.9448 136.457 36.9458V36.6294C136.457 36.0024 136.565 35.4546 136.782 34.9858C137.001 34.5142 137.316 34.1509 137.727 33.896C138.137 33.6382 138.611 33.5093 139.15 33.5093C139.927 33.5093 140.551 33.7144 141.022 34.1245C141.494 34.5317 141.762 35.0942 141.827 35.812H140.289C140.277 35.4224 140.179 35.1426 139.994 34.9727C139.81 34.8027 139.528 34.7178 139.15 34.7178C138.767 34.7178 138.485 34.8613 138.307 35.1484C138.128 35.4355 138.034 35.894 138.025 36.5239V36.9766C138.025 37.6592 138.11 38.147 138.28 38.4399C138.453 38.7329 138.749 38.8794 139.168 38.8794C139.522 38.8794 139.793 38.7959 139.981 38.6289C140.168 38.4619 140.268 38.1968 140.28 37.8335H141.813ZM146.177 38.8047H144.063L143.694 40H142.046L144.393 33.6016H145.843L148.208 40H146.551L146.177 38.8047ZM144.433 37.6138H145.808L145.118 35.3945L144.433 37.6138ZM153.173 34.7925H151.253V40H149.71V34.7925H147.825V33.6016H153.173V34.7925ZM155.472 40H153.934V33.6016H155.472V40ZM161.962 36.9326C161.962 37.5566 161.847 38.1089 161.615 38.5894C161.384 39.0698 161.054 39.4404 160.626 39.7012C160.202 39.959 159.717 40.0879 159.172 40.0879C158.627 40.0879 158.144 39.9634 157.722 39.7144C157.3 39.4624 156.97 39.1035 156.733 38.6377C156.499 38.1719 156.375 37.6372 156.364 37.0337V36.6733C156.364 36.0464 156.478 35.4941 156.707 35.0166C156.938 34.5361 157.268 34.1655 157.695 33.9048C158.126 33.644 158.615 33.5137 159.163 33.5137C159.705 33.5137 160.188 33.6426 160.613 33.9004C161.038 34.1582 161.368 34.5259 161.602 35.0034C161.839 35.478 161.959 36.0229 161.962 36.6382V36.9326ZM160.394 36.6646C160.394 36.0288 160.287 35.5469 160.073 35.2188C159.862 34.8877 159.559 34.7222 159.163 34.7222C158.39 34.7222 157.981 35.3022 157.937 36.4624L157.933 36.9326C157.933 37.5596 158.037 38.0415 158.245 38.3784C158.453 38.7153 158.762 38.8838 159.172 38.8838C159.562 38.8838 159.862 38.7183 160.073 38.3872C160.284 38.0562 160.391 37.5801 160.394 36.959V36.6646ZM168.102 40H166.568L164.3 36.0186V40H162.758V33.6016H164.3L166.563 37.583V33.6016H168.102V40Z" fill="white"/>
</svg>
