<svg width="50" height="50" viewBox="0 0 50 50" fill="none" xmlns="http://www.w3.org/2000/svg">
<circle cx="25" cy="25" r="25" fill="#175D85"/>
<path d="M24.4421 28.4682C28.3412 28.4682 31.6704 29.3181 31.6704 32.7193C31.6704 36.1191 28.3625 37 24.4421 37C20.543 37 17.2137 36.1501 17.2137 32.7503C17.2137 29.3491 20.5216 28.4682 24.4421 28.4682ZM30.6762 26.4201C32.1669 26.3821 33.7694 26.6636 34.3616 26.8634C35.6162 27.2025 36.4414 27.8949 36.7833 28.901C37.0722 29.727 37.0722 30.6853 36.7833 31.51C36.2603 33.0705 34.5743 33.5715 33.919 33.701C33.7837 33.7291 33.6748 33.5673 33.689 33.3801C34.0238 29.0558 31.361 27.0055 30.6721 26.5341C30.6426 26.513 30.6365 26.4806 30.6396 26.4609C30.6416 26.4469 30.6538 26.4243 30.6762 26.4201ZM18.0438 26.4172L18.3245 26.4207C18.3469 26.4249 18.3581 26.4474 18.3602 26.4601C18.3632 26.4812 18.3571 26.5122 18.3286 26.5347C17.6387 27.0061 14.9759 29.0564 15.3107 33.3793C15.3249 33.5678 15.2171 33.7283 15.0818 33.7015C14.4265 33.5721 12.7405 33.0711 12.2175 31.5105C11.9275 30.6845 11.9275 29.7276 12.2175 28.9016C12.5594 27.8954 13.3835 27.2031 14.6381 26.8625C15.2313 26.6641 16.8329 26.3827 18.3245 26.4207L18.0438 26.4172ZM24.4421 12C27.0967 12 29.2254 14.941 29.2254 18.6138C29.2254 22.2852 27.0967 25.2291 24.4421 25.2291C21.7874 25.2291 19.6588 22.2852 19.6588 18.6138C19.6588 14.941 21.7874 12 24.4421 12ZM30.9357 13.103C33.4998 13.103 35.5134 16.4394 34.8276 20.1558C34.3647 22.6578 32.6888 24.3197 30.8217 24.2522C30.6345 24.2452 30.4503 24.2212 30.2723 24.179C30.143 24.1481 30.0779 23.9468 30.1512 23.7977C30.8634 22.3483 31.2694 20.6047 31.2694 18.7332C31.2694 16.78 30.8258 14.9591 30.0555 13.466C30.0311 13.4196 30.0128 13.3478 30.0372 13.2943C30.0576 13.2507 30.0952 13.2282 30.1308 13.2169C30.3903 13.1438 30.6569 13.103 30.9357 13.103ZM18.0636 13.1028C18.3424 13.1028 18.6089 13.1436 18.8694 13.2168C18.904 13.2281 18.9427 13.252 18.963 13.2942C18.9864 13.3477 18.9691 13.4194 18.9447 13.4659C18.1745 14.9589 17.7308 16.7798 17.7308 18.733C17.7308 20.6046 18.1368 22.3481 18.8491 23.7975C18.9223 23.9467 18.8572 24.1479 18.728 24.1789C18.5489 24.2225 18.3658 24.245 18.1785 24.2521C16.3114 24.3196 14.6356 22.6577 14.1726 20.1557C13.4858 16.4393 15.4994 13.1028 18.0636 13.1028Z" fill="#BFA161"/>
</svg>
