<svg width="15" height="15" viewBox="0 0 15 15" fill="none" xmlns="http://www.w3.org/2000/svg">
<path d="M5.625 9.38639C8.6751 9.38639 11.25 9.88827 11.25 11.8266C11.25 13.7649 8.65858 14.25 5.625 14.25C2.5749 14.25 0 13.7474 0 11.8098C0 9.87154 2.59067 9.38639 5.625 9.38639ZM12.7492 3.75C13.1214 3.75 13.4235 4.05708 13.4235 4.43371V5.3159H14.3258C14.6972 5.3159 15 5.62298 15 5.99961C15 6.37624 14.6972 6.68332 14.3258 6.68332H13.4235V7.56629C13.4235 7.94292 13.1214 8.25 12.7492 8.25C12.3778 8.25 12.075 7.94292 12.075 7.56629V6.68332H11.1742C10.8021 6.68332 10.5 6.37624 10.5 5.99961C10.5 5.62298 10.8021 5.3159 11.1742 5.3159H12.075V4.43371C12.075 4.05708 12.3778 3.75 12.7492 3.75ZM5.625 0C7.69093 0 9.34697 1.67747 9.34697 3.77013C9.34697 5.86279 7.69093 7.54026 5.625 7.54026C3.55907 7.54026 1.90303 5.86279 1.90303 3.77013C1.90303 1.67747 3.55907 0 5.625 0Z" fill="#BFA161"/>
</svg>
