<svg width="20" height="16" viewBox="0 0 20 16" fill="none" xmlns="http://www.w3.org/2000/svg">
<path fill-rule="evenodd" clip-rule="evenodd" d="M20 1.6C20 0.716343 19.2837 0 18.4 0H8.96841C8.08476 0 7.36842 0.716343 7.36842 1.6C7.36842 2.48365 8.08476 3.2 8.96841 3.2H18.4C19.2837 3.2 20 2.48365 20 1.6ZM20 8.00002C20 7.11637 19.2837 6.40002 18.4 6.40002H1.60001C0.716339 6.40002 0 7.11637 0 8.00002C0 8.88368 0.716339 9.60003 1.60001 9.60003H18.4C19.2837 9.60003 20 8.88368 20 8.00002ZM18.4 12.8C19.2837 12.8 20 13.5163 20 14.4C20 15.2836 19.2837 16 18.4 16H6.86316C5.97951 16 5.26315 15.2836 5.26315 14.4C5.26315 13.5163 5.97951 12.8 6.86316 12.8H18.4Z" fill="white"/>
</svg>
