<svg width="17" height="17" viewBox="0 0 17 17" fill="none" xmlns="http://www.w3.org/2000/svg">
<path fill-rule="evenodd" clip-rule="evenodd" d="M8 8V16H9V8H16V7H9V1H8V7H1V8H8Z" fill="black"/>
<path d="M8 16H7V17H8V16ZM8 8H9V7H8V8ZM9 16V17H10V16H9ZM9 8V7H8V8H9ZM16 8V9H17V8H16ZM16 7H17V6H16V7ZM9 7H8V8H9V7ZM9 1H10V0H9V1ZM8 1V0H7V1H8ZM8 7V8H9V7H8ZM1 7V6H0V7H1ZM1 8H0V9H1V8ZM9 16V8H7V16H9ZM9 15H8V17H9V15ZM8 8V16H10V8H8ZM16 7H9V9H16V7ZM15 7V8H17V7H15ZM9 8H16V6H9V8ZM8 1V7H10V1H8ZM8 2H9V0H8V2ZM9 7V1H7V7H9ZM1 8H8V6H1V8ZM2 8V7H0V8H2ZM8 7H1V9H8V7Z" fill="#BFA161"/>
</svg>
