<svg width="15" height="16" viewBox="0 0 15 16" fill="none" xmlns="http://www.w3.org/2000/svg">
<path d="M8.06623 0C8.66327 0 9.20383 0.331579 9.50235 0.821053C9.64758 1.05789 9.74439 1.35 9.72019 1.65789C9.70405 1.89474 9.77667 2.13158 9.90576 2.35263C10.3172 3.02368 11.2289 3.27632 11.9389 2.89737C12.7377 2.43947 13.7462 2.71579 14.206 3.49737L14.7466 4.42895C15.2146 5.21053 14.9564 6.21316 14.1496 6.66316C13.4638 7.06579 13.2217 7.95789 13.6332 8.63684C13.7623 8.85 13.9075 9.03158 14.1334 9.14211C14.4158 9.2921 14.6337 9.52895 14.7869 9.76579C15.0855 10.2553 15.0613 10.8553 14.7708 11.3842L14.206 12.3316C13.9075 12.8368 13.3508 13.1526 12.778 13.1526C12.4956 13.1526 12.181 13.0737 11.9228 12.9158C11.713 12.7816 11.471 12.7342 11.2128 12.7342C10.414 12.7342 9.74439 13.3895 9.72019 14.1711C9.72019 15.0789 8.97793 15.7895 8.0501 15.7895H6.95284C6.01694 15.7895 5.27467 15.0789 5.27467 14.1711C5.25854 13.3895 4.58889 12.7342 3.79015 12.7342C3.5239 12.7342 3.28186 12.7816 3.08015 12.9158C2.82198 13.0737 2.49925 13.1526 2.22494 13.1526C1.64404 13.1526 1.08734 12.8368 0.788819 12.3316L0.232121 11.3842C-0.0663982 10.8711 -0.0825344 10.2553 0.215985 9.76579C0.345074 9.52895 0.587117 9.2921 0.861432 9.14211C1.08734 9.03158 1.23256 8.85 1.36972 8.63684C1.77313 7.95789 1.53108 7.06579 0.845295 6.66316C0.046555 6.21316 -0.211624 5.21053 0.248257 4.42895L0.788819 3.49737C1.25677 2.71579 2.25721 2.43947 3.06402 2.89737C3.76594 3.27632 4.67764 3.02368 5.08911 2.35263C5.2182 2.13158 5.29081 1.89474 5.27467 1.65789C5.25854 1.35 5.34729 1.05789 5.50058 0.821053C5.7991 0.331579 6.33966 0.0157895 6.92863 0H8.06623ZM7.50953 5.66842C6.24284 5.66842 5.2182 6.66316 5.2182 7.90263C5.2182 9.14211 6.24284 10.1289 7.50953 10.1289C8.77622 10.1289 9.77667 9.14211 9.77667 7.90263C9.77667 6.66316 8.77622 5.66842 7.50953 5.66842Z" fill="#BFA161"/>
</svg>
