<svg width="50" height="50" viewBox="0 0 50 50" fill="none" xmlns="http://www.w3.org/2000/svg">
<circle cx="25" cy="25" r="25" fill="#175D85"/>
<path d="M26.2867 17.875C26.2867 16.3595 26.3728 14.9873 26.5332 14.1432C26.5332 14.13 26.692 13.3576 26.7945 13.1001C26.9548 12.7285 27.2444 12.414 27.6066 12.2136C27.8961 12.0702 28.202 12 28.5212 12C28.8538 12.0132 29.4788 12.2282 29.7253 12.3292C31.3496 12.9567 34.4541 15.0165 35.6448 16.2732C35.8467 16.4736 36.065 16.7164 36.1229 16.7735C36.3693 17.0895 36.5 17.4742 36.5 17.8882C36.5 18.2612 36.3842 18.6328 36.1511 18.9327C36.0397 19.0885 35.8181 19.3159 35.7143 19.4199L35.6582 19.4755C34.4407 20.7774 31.4075 22.7348 29.8693 23.3639C29.8693 23.3773 29.1021 23.6906 28.6391 23.754L28.5212 23.7647H28.4633C27.7952 23.7647 27.1716 23.3931 26.8524 22.7919C26.6787 22.4627 26.5183 21.506 26.5035 21.4913C26.3728 20.6341 26.2867 19.3189 26.2867 17.875ZM26.3632 31.1181C26.3632 30.519 26.8202 30.0259 27.4097 29.9585L27.5479 29.9507L33.2713 29.6303C34.1057 29.6303 34.7812 30.2959 34.7812 31.1181C34.7812 31.8889 34.1875 32.5233 33.4258 32.5996L33.2713 32.6073L27.5479 32.2855C26.8932 32.2855 26.3632 31.7632 26.3632 31.1181ZM14 31.1103C14 30.7402 14.1158 30.3686 14.3474 30.0673C14.4411 29.9374 14.6108 29.7579 14.7249 29.6415L14.8418 29.5245C16.0607 28.224 19.0924 26.2652 20.6305 25.6361C20.6305 25.6241 21.399 25.3096 21.8622 25.246L21.9801 25.2353H22.038C22.7046 25.2353 23.3282 25.6083 23.6474 26.2081C23.8226 26.5373 23.9814 27.494 23.9963 27.5087C24.1269 28.3659 24.2131 29.6811 24.2131 31.125C24.2131 32.6405 24.1269 34.0127 23.9666 34.8568C23.9666 34.8715 23.8077 35.6424 23.7053 35.8999C23.5464 36.2715 23.2554 36.586 22.8932 36.7864C22.6037 36.9298 22.2978 37 21.9801 37C21.6461 36.9868 21.0225 36.7718 20.776 36.6723C19.1503 36.0433 16.0459 33.9849 14.8567 32.7268C14.6533 32.5264 14.435 32.2836 14.3771 32.2265C14.1307 31.912 14 31.5258 14 31.1103ZM15.7188 17.8816C15.7188 17.1109 16.3125 16.4777 17.0742 16.4015L17.2287 16.3938L22.9522 16.7142C23.607 16.7142 24.137 17.2365 24.137 17.8816C24.137 18.4807 23.68 18.9738 23.0905 19.0412L22.9522 19.049L17.2287 19.3709C16.3943 19.3709 15.7188 18.7038 15.7188 17.8816Z" fill="#BFA161"/>
</svg>
