<svg width="15" height="21" viewBox="0 0 15 21" fill="none" xmlns="http://www.w3.org/2000/svg">
<path d="M12 3C10.3447 3 9 4.344 9 6C9 7.1067 9.60645 8.06395 10.5 8.58471V9C10.5 9 10.5 12 7.5 12C6.25636 12 5.2815 12.2666 4.5 12.6753V5.58471C5.39428 5.06395 6 4.1067 6 3C6 1.344 4.656 0 3 0C1.344 0 0 1.344 0 3C0 4.1067 0.605719 5.06395 1.5 5.58471V15.416C0.605719 15.936 0 16.8926 0 18C0 19.6553 1.344 21 3 21C4.656 21 6 19.6553 6 18C6 17.2148 5.69091 16.5059 5.19727 15.9697C5.63379 15.4336 6.3435 15 7.5 15C13.4531 15 13.5 9 13.5 9V8.58471C14.3936 8.06395 15 7.1067 15 6C15 4.344 13.6553 3 12 3ZM3 1.5C3.82983 1.5 4.5 2.17017 4.5 3C4.5 3.82983 3.82983 4.5 3 4.5C2.17017 4.5 1.5 3.82983 1.5 3C1.5 2.17017 2.17017 1.5 3 1.5ZM3 19.5C2.17017 19.5 1.5 18.8291 1.5 18C1.5 17.1724 2.17017 16.5 3 16.5C3.82983 16.5 4.5 17.1724 4.5 18C4.5 18.8291 3.82983 19.5 3 19.5ZM12 7.5C11.1709 7.5 10.5 6.82983 10.5 6C10.5 5.17017 11.1709 4.5 12 4.5C12.8291 4.5 13.5 5.17017 13.5 6C13.5 6.82983 12.8291 7.5 12 7.5Z" fill="#BFA161"/>
</svg>
