<svg width="15" height="15" viewBox="0 0 15 15" fill="none" xmlns="http://www.w3.org/2000/svg">
<path d="M10.0875 1.33522C10.0575 1.52272 10.0425 1.71022 10.0425 1.89772C10.0425 3.58521 11.4074 4.94945 13.0874 4.94945C13.2749 4.94945 13.4549 4.9277 13.6424 4.8977V10.9494C13.6424 13.4927 12.1424 15.0002 9.59245 15.0002H4.05073C1.49999 15.0002 0 13.4927 0 10.9494V5.4002C0 2.85021 1.49999 1.33522 4.05073 1.33522H10.0875ZM10.2382 5.8952C10.035 5.8727 9.8332 5.9627 9.71245 6.1277L7.89821 8.47518L5.81997 6.84019C5.69247 6.74269 5.54247 6.70444 5.39247 6.72019C5.24322 6.74269 5.10822 6.82444 5.01748 6.94444L2.79824 9.83268L2.75249 9.90018C2.62499 10.1394 2.68499 10.4469 2.90999 10.6127C3.01499 10.6802 3.12748 10.7252 3.25498 10.7252C3.42823 10.7327 3.59248 10.6419 3.69748 10.5002L5.57997 8.07694L7.71746 9.68268L7.78496 9.72693C8.02496 9.85443 8.32496 9.79518 8.49746 9.56943L10.6649 6.77269L10.6349 6.78769C10.7549 6.62269 10.7774 6.41269 10.6949 6.22519C10.6132 6.0377 10.4324 5.9102 10.2382 5.8952ZM13.1925 0C14.19 0 15 0.809996 15 1.80749C15 2.80499 14.19 3.61498 13.1925 3.61498C12.195 3.61498 11.385 2.80499 11.385 1.80749C11.385 0.809996 12.195 0 13.1925 0Z" fill="#BFA161"/>
</svg>
