<svg width="15" height="14" viewBox="0 0 15 14" fill="none" xmlns="http://www.w3.org/2000/svg">
<path d="M10.8867 0C13.4733 0 15 1.48844 15 4.03635H11.8267V4.06235C10.3539 4.06235 9.16 5.22637 9.16 6.66225C9.16 8.09814 10.3539 9.26216 11.8267 9.26216H15V9.49615C15 12.0116 13.4733 13.5 10.8867 13.5H4.11333C1.52667 13.5 0 12.0116 0 9.49615V4.00385C0 1.48844 1.52667 0 4.11333 0H10.8867ZM14.44 5.15431C14.7493 5.15431 15 5.39875 15 5.70029V7.59822C14.9964 7.89829 14.7478 8.14069 14.44 8.1442H11.8867C11.1411 8.15398 10.4891 7.65628 10.32 6.94824C10.2353 6.50872 10.3542 6.05517 10.6448 5.70916C10.9354 5.36315 11.368 5.16006 11.8267 5.15431H14.44ZM12.1867 6.03178H11.94C11.7886 6.03004 11.6427 6.08748 11.535 6.19128C11.4273 6.29508 11.3667 6.4366 11.3667 6.58426C11.3666 6.89404 11.6223 7.14617 11.94 7.14973H12.1867C12.5033 7.14973 12.76 6.89947 12.76 6.59076C12.76 6.28204 12.5033 6.03178 12.1867 6.03178ZM7.78667 2.91839H3.55333C3.23928 2.91837 2.98365 3.1647 2.98 3.47087C2.98 3.78066 3.23561 4.03279 3.55333 4.03635H7.78667C8.10331 4.03635 8.36 3.78609 8.36 3.47737C8.36 3.16866 8.10331 2.91839 7.78667 2.91839Z" fill="#BFA161"/>
</svg>
